<svg width="249" height="248" fill="none" xmlns="http://www.w3.org/2000/svg">
  <g clip-path="url(#a)" fill="#F2F4F7">
    <path d="M60.792 6.708C59.55 17.08 55.89 29.735 54.093 29.735c-.483 0-3.798-1.383-7.32-3.042-5.664-2.628-14.297-5.256-17.474-5.256-.829 0-.414 1.245 1.589 5.325 3.038 6.154 5.801 15.767 5.456 19.086l-.207 2.213-6.216.484c-18.095 1.383-26.59 2.213-26.59 2.559 0 .276 3.04 3.526 6.769 7.33 6.975 7.053 12.086 14.59 11.74 17.219-.138.968-3.66 3.872-10.912 8.92C5.058 88.653.154 92.318.016 92.664c-.138.346.622.83 1.727 1.106 7.39 1.591 10.567 2.628 13.191 4.15 3.591 2.143 7.32 5.325 9.185 7.952l1.382 1.936-7.735 7.676c-6.492 6.5-7.597 7.815-6.769 8.575.553.484 4.697 2.075 9.255 3.458 4.558 1.383 8.564 2.835 8.91 3.181.344.346-.208 3.872-1.52 8.713-1.174 4.495-1.934 8.437-1.727 8.782.345.623 11.741.069 13.606-.622 1.726-.622 2.417 1.037 2.9 6.5.277 3.181.691 5.878.967 6.016.553.347 8.288-2.973 8.288-3.526 0-.208-.898-1.66-2.003-3.25-3.177-4.634-5.318-9.405-7.32-16.044-.968-3.457-2.418-8.091-3.109-10.373-.76-2.281-1.519-5.393-1.657-6.915-.967-7.33-1.105-10.027-.415-10.027.346 0 .691 1.176.691 2.559.07 3.112 1.589 11.41 2.625 14.383.414 1.107 1.726 5.187 2.9 8.99 2.832 8.921 6.907 16.943 10.429 20.469 1.657 1.66 5.249 4.011 8.702 5.602l5.801 2.697-.207 2.558-.207 2.559-15.401 5.117-15.402 5.186-2.002 6.57c-1.105 3.665-4.213 14.522-6.976 24.204-2.762 9.611-5.387 17.91-5.801 18.324-.415.415-1.658 4.15-2.694 8.368-1.036 4.149-2.002 8.16-2.21 8.783-.345 1.175 2.417 1.244 51.453 1.244 49.104 0 51.867-.069 51.867-1.244 0-.623-3.246-4.219-7.252-7.953s-7.252-7.192-7.252-7.745c0-.484 2.487-3.043 5.456-5.671 7.597-6.5 7.667-6.914 4.559-14.868-5.249-13.345-16.507-33.953-20.65-37.826-1.313-1.244-1.796-2.42-1.796-4.287 0-2.835.621-3.527 4.144-4.703 3.591-1.175 7.113-3.872 9.531-7.26 1.933-2.697 2.762-3.181 8.08-4.841 3.246-1.037 5.87-2.144 5.87-2.42 0-.346-1.243-2.144-2.762-3.942-2.97-3.596-3.523-6.155-1.519-6.777.621-.207 3.038-.554 5.317-.83 2.279-.207 4.351-.553 4.627-.76.622-.277-2.9-10.097-3.729-10.443-.276-.138-.552-.76-.552-1.452 0-.829.967-1.452 3.453-2.075 4.281-1.106 14.503-6.016 14.503-6.915 0-.414-1.312-1.383-2.9-2.212-8.841-4.495-16.023-9.682-14.573-10.511.276-.139 2.831-.969 5.594-1.798 2.763-.83 7.252-2.559 10.014-3.804 4.766-2.144 14.573-7.953 14.158-8.367-.276-.208-18.992-8.23-20.788-8.852-.829-.346-1.036-.76-.69-1.383.276-.553 4.834-4.979 10.083-9.82 5.18-4.91 9.462-9.128 9.462-9.404 0-.553-4.283-1.314-16.921-3.112-4.558-.692-8.564-1.383-8.84-1.66-.345-.276 2.832-6.362 7.044-13.484 6.838-11.687 8.15-14.177 7.459-14.177-.138 0-5.801 2.006-12.569 4.495-9.876 3.596-12.57 4.288-13.26 3.596-1.52-1.521-2.971-12.931-2.971-23.166V2.005l-5.593 2.974C98.916 8.506 90.145 15.352 86.07 20.123c-1.52 1.867-3.108 3.389-3.384 3.389-.346 0-2.97-3.181-5.94-7.123C71.636 9.612 63.002 0 62.036 0c-.277 0-.83 3.043-1.244 6.708Zm1.934 173.295c-2.555 2.006-15.608 36.513-14.572 38.311.345.622 3.315 3.457 6.63 6.362 3.384 2.904 6.215 5.601 6.354 6.016.138.415-.691 1.937-1.865 3.388-1.105 1.453-2.072 2.213-2.072 1.729 0-.415.621-1.659 1.45-2.628l1.45-1.866-6.63-6.224c-4.627-4.357-6.63-6.708-6.63-7.815 0-2.213 7.874-23.373 12.708-34.23 1.174-2.628 2.141-3.942 2.97-3.942 1.105.069 1.105.139.207.899Z"/>
    <path d="M178.34 97.16c-19.407 3.526-30.112 11.202-43.993 31.74-3.039 4.426-3.247 4.979-3.247 9.266 0 3.319-.69 6.57-2.486 12.171-3.038 9.474-2.901 11.687 1.45 19.086 1.727 2.905 3.108 5.671 3.108 6.017 0 .414-.898 1.728-2.072 2.973-3.66 3.942-3.591 10.027.208 14.107 2.21 2.282 7.39 4.426 8.771 3.527.345-.207-.138-1.798-1.036-3.596-.967-1.729-1.727-3.665-1.658-4.288 0-.691.346-.484.76.623 1.174 2.559 6.63 10.995 9.324 14.314 5.318 6.639 16.782 13.347 27.487 16.182 3.246.83 8.979 1.59 13.813 1.798 4.558.207 7.666.622 6.906.899-4.144 1.452-23.206-1.245-31.977-4.564l-4.557-1.729-1.175 1.59c-4.351 5.74-9.324 18.81-10.567 27.662l-.345 2.627h42.82c40.471 0 42.819-.069 42.474-1.244-.207-.623-1.312-4.772-2.417-9.198-2.417-9.543-4.351-14.314-7.459-18.394-1.243-1.66-2.279-3.388-2.279-3.873.069-.414 1.795-2.075 3.937-3.596 3.867-2.766 9.185-8.367 12.085-12.793.967-1.452 2.487-2.627 3.868-3.042 1.174-.347 3.384-1.798 4.903-3.181 4.766-4.565 5.25-10.788 1.037-14.454-1.451-1.244-1.658-1.866-1.243-4.079.276-1.383.69-2.697.967-2.905.276-.207.897-2.213 1.381-4.495.69-3.319.69-5.877 0-13-.484-4.841-1.175-8.782-1.52-8.782s-.552-1.937-.483-4.358c.138-3.803-.207-4.978-2.694-9.819-3.315-6.57-8.218-13.761-13.191-19.155-3.039-3.32-5.042-4.633-12.846-8.506-5.525-2.697-11.188-4.979-13.95-5.532-5.733-1.245-17.474-1.245-24.104 0ZM97.259 172.604c0 .208 1.312 2.144 2.969 4.287 1.658 2.145 3.937 5.533 5.18 7.4 3.246 5.186 10.774 21.368 12.984 27.799 2.417 6.846 2.21 7.33-5.042 13.484-2.762 2.352-5.041 4.842-5.041 5.394 0 .623 3.107 3.942 6.906 7.538 4.144 3.804 6.906 6.916 6.906 7.745 0 1.245.553 1.314 9.669 1.314 7.252 0 9.67-.207 9.67-.899 0-2.904-16.921-63.827-18.51-66.731-.276-.554-4.696-2.006-9.806-3.32-5.112-1.245-10.429-2.766-11.88-3.388-2.831-1.107-4.005-1.314-4.005-.623Z"/>
  </g>
  <defs>
    <clipPath id="a">
      <path fill="#fff" d="M0 0h249v248H0z"/>
    </clipPath>
  </defs>
</svg>
